<svg width="235" height="39" viewBox="0 0 235 39" fill="none" xmlns="http://www.w3.org/2000/svg">
<path fill-rule="evenodd" clip-rule="evenodd" d="M94.6416 0H234.285V38.0889H94.6416V0ZM110.979 15.3862V12.7189H109.004V15.3862H105.988V16.842H109.004V22.8282C109.004 23.5069 109.098 24.0855 109.285 24.564C109.473 25.0425 109.729 25.4327 110.055 25.7348C110.381 26.0368 110.765 26.2574 111.207 26.3965C111.649 26.5356 112.125 26.6052 112.635 26.6052C112.939 26.6052 113.246 26.5916 113.553 26.5645C113.861 26.5373 114.153 26.4983 114.429 26.4474C114.706 26.3965 114.96 26.3354 115.194 26.2642C115.428 26.1929 115.626 26.1097 115.789 26.0147L115.512 24.6811C115.392 24.7082 115.238 24.7405 115.051 24.7778C114.863 24.8151 114.661 24.8508 114.445 24.8847C114.229 24.9186 114.008 24.9475 113.782 24.9712C113.555 24.995 113.336 25.0069 113.123 25.0069C112.833 25.0069 112.559 24.9729 112.301 24.905C112.042 24.8372 111.814 24.7201 111.616 24.5538C111.418 24.3875 111.262 24.1653 111.149 23.887C111.035 23.6087 110.979 23.2558 110.979 22.8282V16.842H115.353V15.3862H110.979ZM124.452 26.6052C123.645 26.6052 122.904 26.4729 122.228 26.2082C121.552 25.9435 120.973 25.5736 120.492 25.0985C120.01 24.6234 119.635 24.0601 119.366 23.4085C119.097 22.757 118.963 22.0477 118.963 21.2808V20.8532C118.963 19.9641 119.112 19.1683 119.409 18.4658C119.706 17.7634 120.101 17.1695 120.593 16.6842C121.085 16.199 121.644 15.8274 122.27 15.5695C122.897 15.3116 123.539 15.1826 124.197 15.1826C125.026 15.1826 125.749 15.3201 126.369 15.5949C126.988 15.8698 127.503 16.2499 127.914 16.7352C128.324 17.2204 128.63 17.7922 128.832 18.4506C129.034 19.1089 129.135 19.8216 129.135 20.5885V21.4335H120.927C120.948 21.9357 121.049 22.4074 121.23 22.8486C121.41 23.2897 121.658 23.6749 121.973 24.0041C122.288 24.3332 122.665 24.5929 123.104 24.7829C123.543 24.9729 124.028 25.0679 124.558 25.0679C125.259 25.0679 125.882 24.9322 126.427 24.6607C126.972 24.3892 127.425 24.0295 127.786 23.5816L128.986 24.4775C128.795 24.7557 128.556 25.0221 128.269 25.2766C127.983 25.5312 127.652 25.7568 127.277 25.9537C126.901 26.1505 126.477 26.3083 126.003 26.427C125.528 26.5458 125.012 26.6052 124.452 26.6052ZM123.071 16.9388C123.425 16.7996 123.8 16.7301 124.197 16.7301C124.699 16.7301 125.133 16.8183 125.498 16.9947C125.862 17.1712 126.165 17.402 126.405 17.687C126.646 17.9721 126.828 18.2945 126.952 18.6542C127.076 19.0139 127.149 19.377 127.17 19.7435V19.886H120.99C121.068 19.377 121.204 18.9274 121.399 18.5371C121.594 18.1468 121.833 17.8177 122.116 17.5496C122.399 17.2815 122.717 17.0779 123.071 16.9388ZM133.33 15.3862L133.383 16.4246C133.617 16.0378 133.923 15.7358 134.301 15.5186C134.68 15.3014 135.139 15.1894 135.677 15.1826C136.731 15.1826 137.436 15.5763 137.789 16.3636C138.016 16.0106 138.315 15.7273 138.687 15.5135C139.058 15.2997 139.51 15.1894 140.04 15.1826C140.883 15.1826 141.53 15.4303 141.984 15.9258C142.437 16.4213 142.663 17.1712 142.663 18.1757V26.4016H140.794V18.1553C140.794 17.2323 140.352 16.7742 139.467 16.781C139.233 16.781 139.032 16.8115 138.862 16.8726C138.692 16.9337 138.55 17.0168 138.437 17.122C138.324 17.2272 138.235 17.3494 138.172 17.4885C138.108 17.6276 138.066 17.7719 138.044 17.9212V26.4016H136.176V18.1452C136.176 17.704 136.073 17.3647 135.868 17.1271C135.662 16.8896 135.337 16.7742 134.891 16.781C134.48 16.781 134.162 16.859 133.935 17.0151C133.709 17.1712 133.542 17.3782 133.436 17.6361V26.4016H131.567V15.3862H133.33ZM154.873 23.2202C155.071 22.5381 155.171 21.8034 155.171 21.0161V20.8023C155.171 19.9811 155.071 19.226 154.873 18.5371C154.675 17.8482 154.385 17.2561 154.003 16.7606C153.62 16.2651 153.146 15.8783 152.58 15.6C152.014 15.3217 151.362 15.1826 150.626 15.1826C149.911 15.1826 149.283 15.3031 148.741 15.544C148.2 15.785 147.738 16.1328 147.356 16.5875L147.26 15.3862H145.466V30.6367H147.43V25.3428C147.812 25.75 148.271 26.0622 148.805 26.2794C149.34 26.4966 149.957 26.6052 150.658 26.6052C151.38 26.6052 152.022 26.4627 152.585 26.1776C153.148 25.8926 153.62 25.4989 154.003 24.9967C154.385 24.4944 154.675 23.9023 154.873 23.2202ZM153.206 20.8023C153.206 20.2661 153.144 19.7554 153.02 19.2701C152.896 18.7848 152.705 18.3573 152.447 17.9874C152.188 17.6175 151.861 17.3239 151.464 17.1067C151.068 16.8895 150.594 16.781 150.042 16.781C149.412 16.781 148.883 16.9218 148.454 17.2034C148.026 17.4851 147.685 17.8465 147.43 18.2877V23.5918C147.685 24.0261 148.024 24.3807 148.449 24.6556C148.874 24.9305 149.412 25.0679 150.063 25.0679C150.608 25.0679 151.079 24.9576 151.475 24.7371C151.872 24.5165 152.197 24.2196 152.452 23.8463C152.707 23.473 152.896 23.042 153.02 22.5533C153.144 22.0647 153.206 21.5523 153.206 21.0161V20.8023ZM164.705 10.7642H158.833V12.4033H162.74V24.7727H158.833V26.4016H168.453V24.7727H164.705V10.7642ZM179.123 26.4016C179.045 26.2591 178.983 26.0809 178.937 25.8671C178.891 25.6533 178.858 25.4311 178.837 25.2003C178.638 25.3903 178.417 25.5702 178.173 25.7399C177.929 25.9095 177.66 26.0589 177.366 26.1878C177.072 26.3168 176.759 26.4186 176.426 26.4932C176.094 26.5679 175.74 26.6052 175.365 26.6052C174.756 26.6052 174.205 26.5204 173.713 26.3507C173.221 26.181 172.804 25.952 172.461 25.6635C172.117 25.3751 171.852 25.0323 171.664 24.6353C171.477 24.2382 171.383 23.809 171.383 23.3474C171.383 22.7434 171.508 22.214 171.76 21.7593C172.011 21.3045 172.367 20.9262 172.827 20.6241C173.287 20.3221 173.841 20.0964 174.489 19.9471C175.136 19.7978 175.86 19.7231 176.66 19.7231H178.805V18.8578C178.805 18.5252 178.741 18.2266 178.614 17.9619C178.486 17.6972 178.306 17.4715 178.072 17.2849C177.838 17.0983 177.554 16.954 177.217 16.8522C176.881 16.7504 176.504 16.6995 176.087 16.6995C175.697 16.6995 175.349 16.747 175.041 16.842C174.733 16.9371 174.473 17.0626 174.26 17.2187C174.048 17.3748 173.883 17.5598 173.767 17.7736C173.65 17.9874 173.591 18.2096 173.591 18.4404H171.616C171.623 18.04 171.731 17.6463 171.94 17.2595C172.149 16.8726 172.45 16.5248 172.843 16.2159C173.236 15.9071 173.713 15.6577 174.276 15.4677C174.839 15.2776 175.478 15.1826 176.193 15.1826C176.844 15.1826 177.449 15.259 178.008 15.4117C178.568 15.5644 179.051 15.7951 179.458 16.104C179.865 16.4128 180.185 16.7979 180.419 17.2595C180.652 17.721 180.769 18.2605 180.769 18.8782V23.999C180.769 24.3655 180.804 24.754 180.875 25.1647C180.946 25.5753 181.045 25.9333 181.173 26.2387V26.4016H179.123ZM176.723 24.8236C176.39 24.9186 176.033 24.9661 175.651 24.9661C175.269 24.9661 174.932 24.9186 174.642 24.8236C174.352 24.7286 174.111 24.5979 173.92 24.4317C173.729 24.2654 173.586 24.0669 173.49 23.8361C173.394 23.6053 173.347 23.3542 173.347 23.0827C173.347 22.3837 173.665 21.8713 174.302 21.5455C174.939 21.2197 175.831 21.0568 176.978 21.0568H178.804V23.2863C178.691 23.5035 178.535 23.7122 178.337 23.9125C178.139 24.1127 177.904 24.2908 177.631 24.4469C177.358 24.603 177.056 24.7286 176.723 24.8236ZM189.275 12.7189V15.3862H193.649V16.842H189.275V22.8282C189.275 23.2558 189.331 23.6087 189.444 23.887C189.558 24.1653 189.713 24.3875 189.912 24.5538C190.11 24.7201 190.338 24.8372 190.597 24.905C190.855 24.9729 191.129 25.0069 191.419 25.0069C191.632 25.0069 191.851 24.995 192.078 24.9712C192.304 24.9475 192.525 24.9186 192.741 24.8847C192.957 24.8508 193.159 24.8151 193.347 24.7778C193.534 24.7405 193.688 24.7082 193.808 24.6811L194.084 26.0147C193.922 26.1097 193.723 26.1929 193.49 26.2642C193.256 26.3354 193.001 26.3965 192.725 26.4474C192.449 26.4983 192.157 26.5373 191.849 26.5645C191.541 26.5916 191.235 26.6052 190.931 26.6052C190.421 26.6052 189.945 26.5356 189.503 26.3965C189.06 26.2574 188.676 26.0368 188.351 25.7348C188.025 25.4327 187.769 25.0425 187.581 24.564C187.393 24.0855 187.3 23.5069 187.3 22.8282V16.842H184.284V15.3862H187.3V12.7189H189.275ZM200.525 26.2082C201.201 26.4729 201.942 26.6052 202.749 26.6052C203.308 26.6052 203.825 26.5458 204.299 26.427C204.774 26.3083 205.198 26.1505 205.574 25.9537C205.949 25.7568 206.28 25.5312 206.566 25.2766C206.853 25.0221 207.092 24.7557 207.283 24.4775L206.083 23.5816C205.722 24.0295 205.269 24.3892 204.724 24.6607C204.179 24.9322 203.556 25.0679 202.855 25.0679C202.324 25.0679 201.84 24.9729 201.401 24.7829C200.962 24.5929 200.585 24.3332 200.27 24.0041C199.955 23.6749 199.707 23.2897 199.527 22.8486C199.346 22.4074 199.245 21.9357 199.224 21.4335H207.432V20.5885C207.432 19.8216 207.331 19.1089 207.129 18.4506C206.927 17.7922 206.621 17.2204 206.211 16.7352C205.8 16.2499 205.285 15.8698 204.666 15.5949C204.046 15.3201 203.323 15.1826 202.494 15.1826C201.836 15.1826 201.194 15.3116 200.567 15.5695C199.941 15.8274 199.382 16.199 198.89 16.6842C198.398 17.1695 198.003 17.7634 197.706 18.4658C197.408 19.1683 197.26 19.9641 197.26 20.8532V21.2808C197.26 22.0477 197.394 22.757 197.663 23.4085C197.932 24.0601 198.307 24.6234 198.789 25.0985C199.27 25.5736 199.849 25.9435 200.525 26.2082ZM202.494 16.7301C202.097 16.7301 201.722 16.7996 201.368 16.9388C201.014 17.0779 200.696 17.2815 200.413 17.5496C200.129 17.8177 199.891 18.1468 199.696 18.5371C199.501 18.9274 199.365 19.377 199.287 19.886H205.467V19.7435C205.445 19.377 205.373 19.0139 205.249 18.6542C205.125 18.2945 204.943 17.9721 204.702 17.687C204.462 17.402 204.159 17.1712 203.794 16.9947C203.43 16.8183 202.996 16.7301 202.494 16.7301ZM218.219 22.874C218.311 23.0539 218.357 23.2558 218.357 23.4798C218.35 23.9617 218.106 24.3485 217.624 24.6404C217.143 24.9322 216.488 25.0781 215.66 25.0781C215.327 25.0781 214.991 25.0442 214.651 24.9763C214.312 24.9084 214.002 24.7931 213.722 24.6302C213.443 24.4673 213.209 24.2535 213.022 23.9888C212.834 23.7241 212.726 23.3983 212.698 23.0115H210.733C210.733 23.4798 210.845 23.9311 211.068 24.3655C211.291 24.7999 211.613 25.1816 212.034 25.5108C212.455 25.84 212.97 26.1047 213.579 26.3049C214.188 26.5051 214.881 26.6052 215.66 26.6052C216.34 26.6052 216.966 26.5272 217.539 26.3711C218.113 26.215 218.605 25.9944 219.015 25.7093C219.426 25.4243 219.746 25.0815 219.976 24.6811C220.206 24.2806 220.321 23.8361 220.321 23.3474C220.321 22.8927 220.22 22.4923 220.019 22.1461C219.817 21.8 219.525 21.4963 219.143 21.235C218.761 20.9737 218.29 20.7497 217.731 20.563C217.171 20.3764 216.538 20.2118 215.83 20.0693C215.292 19.9675 214.848 19.8623 214.497 19.7537C214.147 19.6451 213.867 19.5229 213.659 19.3872C213.45 19.2514 213.303 19.0987 213.218 18.9291C213.133 18.7594 213.091 18.566 213.091 18.3488C213.091 18.1384 213.144 17.9348 213.25 17.7379C213.356 17.5411 213.514 17.368 213.722 17.2187C213.931 17.0694 214.193 16.9506 214.508 16.8624C214.823 16.7742 215.189 16.7301 215.607 16.7301C216.01 16.7301 216.373 16.7844 216.695 16.893C217.017 17.0015 217.292 17.1441 217.518 17.3205C217.745 17.497 217.922 17.6989 218.049 17.9263C218.177 18.1536 218.24 18.3861 218.24 18.6236H220.205C220.205 18.1418 220.097 17.6921 219.881 17.2747C219.665 16.8573 219.359 16.4925 218.962 16.1803C218.566 15.8681 218.085 15.6238 217.518 15.4473C216.952 15.2708 216.315 15.1826 215.607 15.1826C214.949 15.1826 214.345 15.2675 213.797 15.4371C213.248 15.6068 212.776 15.8376 212.379 16.1294C211.983 16.4213 211.675 16.7623 211.455 17.1526C211.236 17.5428 211.126 17.9619 211.126 18.4099C211.126 18.8646 211.232 19.2633 211.445 19.6061C211.657 19.9488 211.956 20.2474 212.342 20.502C212.728 20.7565 213.191 20.9754 213.733 21.1586C214.274 21.3419 214.874 21.498 215.533 21.6269C216.071 21.7287 216.52 21.8424 216.881 21.968C217.242 22.0935 217.532 22.231 217.752 22.3803C217.971 22.5296 218.127 22.6942 218.219 22.874Z" fill="black"/>
<path d="M17.9442 19.6125C19.3407 20.0336 20.4345 20.7428 21.2259 21.7401C22.0172 22.7152 22.4128 23.923 22.4128 25.3635C22.4128 27.4024 21.575 28.9759 19.8992 30.084C18.2468 31.17 15.8263 31.713 12.6378 31.713H0V8.44287H11.9395C14.9186 8.44287 17.1995 8.98584 18.7821 10.0718C20.388 11.1577 21.1909 12.6315 21.1909 14.4931C21.1909 15.6234 20.9 16.6317 20.3182 17.5182C19.7596 18.4047 18.9683 19.1028 17.9442 19.6125ZM5.62066 12.4985V17.9836H11.2413C12.6378 17.9836 13.6967 17.7509 14.4182 17.2855C15.1397 16.8201 15.5005 16.1331 15.5005 15.2244C15.5005 14.3158 15.1397 13.6399 14.4182 13.1966C13.6967 12.7312 12.6378 12.4985 11.2413 12.4985H5.62066ZM12.2188 27.6573C13.7084 27.6573 14.8255 27.4246 15.5703 26.9592C16.3383 26.4938 16.7223 25.7735 16.7223 24.7984C16.7223 22.8703 15.2212 21.9063 12.2188 21.9063H5.62066V27.6573H12.2188Z" fill="black"/>
<path d="M33.8862 13.5623C36.7955 13.5623 39.0298 14.2271 40.5891 15.5569C42.1485 16.8644 42.9282 18.8479 42.9282 21.5074V31.713H37.8312V29.4857C36.8071 31.1478 34.8987 31.9789 32.1058 31.9789C30.6628 31.9789 29.406 31.7462 28.3354 31.2808C27.2881 30.8154 26.4851 30.1727 25.9266 29.3527C25.368 28.5327 25.0887 27.6019 25.0887 26.5603C25.0887 24.8981 25.7404 23.5906 27.0437 22.6376C28.3703 21.6847 30.4068 21.2082 33.1531 21.2082H37.4821C37.4821 20.0779 37.1213 19.2136 36.3998 18.6152C35.6783 17.9947 34.5961 17.6844 33.1531 17.6844C32.1523 17.6844 31.1632 17.8396 30.1857 18.1498C29.2315 18.4379 28.4169 18.8368 27.7419 19.3466L25.7869 15.7231C26.811 15.0361 28.0328 14.5042 29.4526 14.1274C30.8955 13.7507 32.3734 13.5623 33.8862 13.5623ZM33.4673 28.4884C34.3983 28.4884 35.2245 28.2889 35.946 27.89C36.6675 27.4689 37.1795 26.8595 37.4821 26.0616V24.2333H33.7466C31.5123 24.2333 30.3952 24.9314 30.3952 26.3276C30.3952 26.9925 30.6628 27.5243 31.1981 27.9233C31.7567 28.3 32.5131 28.4884 33.4673 28.4884Z" fill="black"/>
<path d="M54.176 31.9789C52.6167 31.9789 51.0922 31.8016 49.6027 31.447C48.1132 31.0703 46.9262 30.6049 46.0418 30.0508L47.8572 26.3276C48.695 26.8373 49.7074 27.2584 50.8944 27.5908C52.0814 27.9011 53.2451 28.0562 54.3855 28.0562C56.6896 28.0562 57.8417 27.5133 57.8417 26.4273C57.8417 25.9176 57.5275 25.5519 56.8991 25.3303C56.2707 25.1087 55.3048 24.9203 54.0015 24.7652C52.4654 24.5436 51.197 24.2887 50.1962 24.0006C49.1954 23.7125 48.3226 23.2028 47.5779 22.4714C46.8564 21.7401 46.4956 20.6984 46.4956 19.3466C46.4956 18.2163 46.8331 17.219 47.5081 16.3547C48.2063 15.4682 49.2071 14.7812 50.5104 14.2936C51.837 13.8061 53.3964 13.5623 55.1885 13.5623C56.5151 13.5623 57.8301 13.7063 59.1334 13.9944C60.46 14.2604 61.5539 14.6371 62.415 15.1247L60.5997 18.8147C58.9472 17.9282 57.1435 17.485 55.1885 17.485C54.0248 17.485 53.152 17.6401 52.5701 17.9504C51.9883 18.2606 51.6974 18.6595 51.6974 19.1471C51.6974 19.7012 52.0116 20.089 52.64 20.3106C53.2684 20.5322 54.2691 20.7428 55.6423 20.9422C57.1784 21.186 58.4352 21.452 59.4127 21.7401C60.3902 22.006 61.2397 22.5046 61.9612 23.236C62.6827 23.9673 63.0434 24.9868 63.0434 26.2943C63.0434 27.4024 62.6943 28.3887 61.9961 29.253C61.2979 30.1173 60.2738 30.7932 58.9239 31.2808C57.5973 31.7462 56.0147 31.9789 54.176 31.9789Z" fill="black"/>
<path d="M84.8017 22.8371C84.8017 22.9036 84.7668 23.369 84.6969 24.2333H70.4882C70.7442 25.3414 71.3493 26.2168 72.3036 26.8595C73.2578 27.5022 74.4448 27.8235 75.8645 27.8235C76.842 27.8235 77.7031 27.6906 78.4479 27.4246C79.2159 27.1365 79.9258 26.6933 80.5774 26.0949L83.4751 29.0868C81.7062 31.0148 79.1228 31.9789 75.7248 31.9789C73.6069 31.9789 71.7333 31.5911 70.1042 30.8154C68.475 30.0176 67.2182 28.9205 66.3338 27.5243C65.4494 26.1281 65.0072 24.5435 65.0072 22.7706C65.0072 21.0198 65.4377 19.4463 66.2989 18.0501C67.1833 16.6317 68.3819 15.5347 69.8947 14.759C71.4308 13.9612 73.1414 13.5623 75.0266 13.5623C76.8652 13.5623 78.5293 13.939 80.0189 14.6926C81.5084 15.4461 82.6721 16.532 83.51 17.9504C84.3711 19.3466 84.8017 20.9755 84.8017 22.8371ZM75.0615 17.485C73.828 17.485 72.7923 17.8174 71.9544 18.4822C71.1166 19.1471 70.6046 20.0557 70.4184 21.2082H79.6698C79.4836 20.0779 78.9715 19.1804 78.1337 18.5155C77.2958 17.8285 76.2718 17.485 75.0615 17.485Z" fill="black"/>
</svg>
